<svg width="195" height="195" viewBox="0 0 195 195" fill="none" xmlns="http://www.w3.org/2000/svg">
<circle cx="97.5" cy="97.5" r="97.5" fill="#EAF73C"/>
<path d="M118.878 38C118.878 38 129.479 63.935 84.0445 81.3554C59.3564 90.8186 40.3944 115.073 63.035 152.541C64.91 135.794 72.9499 98.8678 107.521 90.4415C107.521 90.4415 75.3443 102.473 72.5019 156.936C89.0357 159.258 127.812 160.817 139.325 127.167C154.527 82.7072 118.878 38 118.878 38Z" fill="#3A7F0D"/>
<path d="M72.5169 156.71C107.617 142.701 133.156 109.886 136.681 70.7112C129.505 51.3555 118.878 38 118.878 38C118.878 38 129.479 63.935 84.0445 81.3554C59.3564 90.8186 40.3944 115.074 63.035 152.541C64.91 135.794 72.9499 98.8678 107.521 90.4415C107.519 90.4418 75.4381 102.444 72.5169 156.71Z" fill="#49A010"/>
</svg>
